<?xml version="1.0" encoding="UTF-8"?><svg id="uuid-cdbe222b-4dab-4be6-8782-8e2fb9258c02" xmlns="http://www.w3.org/2000/svg" xmlns:xlink="http://www.w3.org/1999/xlink" viewBox="0 0 400 400"><defs><style>.uuid-9226c576-098c-46e2-aa45-3949d317b3d5{fill:none;}.uuid-0d25a38f-eba0-4f7a-8a71-5425ef1f0786{fill:#00db91;}.uuid-b083230d-1d5e-464b-b415-01a87165cfdf{fill:#0069ff;}.uuid-4825221c-b4fc-4e6b-aa54-0271bc2f83f5{fill:#fff;}.uuid-0c26e87f-5feb-4326-ad40-0273b3f0806a{fill:#ffc738;}.uuid-31120e9b-cf2b-4f52-8cb4-f8e9d193de32{fill:#ffb5d1;}.uuid-75618048-c1bc-417f-89cc-e670d03bd212{fill:#ff1d2e;}.uuid-69743a14-252e-42ae-8956-36edca1984d0{fill:#ff403d;}.uuid-0180cb12-f304-457e-bc73-b31598464586{fill:#ff80ab;}.uuid-b30ec924-5d80-4082-98e2-06983909b4a3{fill:#ff76ac;}.uuid-67e4c3b1-f763-4016-928a-6595cfb9c9ea{fill:#b7bac2;}.uuid-18e611b0-f93a-496a-a945-9e8fc834607c{fill:#101834;}.uuid-757c1496-148c-4b96-834a-64d6ed712a3e{fill:#40465d;}.uuid-371552d5-ef47-4966-a0be-45a3cccca57a{fill:#0d6b45;}.uuid-cf6d9ce2-eba5-471d-a4cd-500f7f9c4c85{fill:#196cff;}.uuid-e254166a-aa6b-4b2d-b255-0e1480b26bfb{clip-path:url(#uuid-2dd5be01-6ad8-4e60-939e-144003d5d70c);}.uuid-f23cd8b1-2af2-4252-96ed-a8380cefea1f{filter:url(#uuid-900f748a-e567-42bb-8b39-c761da32f552);}</style><filter id="uuid-900f748a-e567-42bb-8b39-c761da32f552" filterUnits="userSpaceOnUse"><feOffset dx="0" dy="1"/><feGaussianBlur result="uuid-30de9595-7c83-499a-b4bd-c95073a38bfb" stdDeviation="2"/><feFlood flood-color="#000" flood-opacity=".2"/><feComposite in2="uuid-30de9595-7c83-499a-b4bd-c95073a38bfb" operator="in"/><feComposite in="SourceGraphic"/></filter><clipPath id="uuid-2dd5be01-6ad8-4e60-939e-144003d5d70c"><rect class="uuid-9226c576-098c-46e2-aa45-3949d317b3d5" x="37.27" y="85.23" width="325.45" height="273.35"/></clipPath></defs><rect class="uuid-cf6d9ce2-eba5-471d-a4cd-500f7f9c4c85" width="400" height="400"/><g><path class="uuid-371552d5-ef47-4966-a0be-45a3cccca57a" d="M48.92,61.02H351.08c6.43,0,11.65,5.22,11.65,11.65V358.59H37.27V72.66c0-6.43,5.22-11.65,11.65-11.65Z"/><path class="uuid-18e611b0-f93a-496a-a945-9e8fc834607c" d="M48.97,61.02H351.03c6.46,0,11.7,5.24,11.7,11.7v12.52H37.27v-12.52c0-6.46,5.24-11.7,11.7-11.7Z"/><circle class="uuid-69743a14-252e-42ae-8956-36edca1984d0" cx="55.71" cy="73.81" r="6.05"/><circle class="uuid-0c26e87f-5feb-4326-ad40-0273b3f0806a" cx="71.82" cy="73.81" r="6.05"/><circle class="uuid-0d25a38f-eba0-4f7a-8a71-5425ef1f0786" cx="87.94" cy="73.81" r="6.05"/><g class="uuid-f23cd8b1-2af2-4252-96ed-a8380cefea1f"><rect class="uuid-4825221c-b4fc-4e6b-aa54-0271bc2f83f5" x="37.27" y="85.23" width="325.45" height="273.35"/><g class="uuid-e254166a-aa6b-4b2d-b255-0e1480b26bfb"><g><g><rect class="uuid-4825221c-b4fc-4e6b-aa54-0271bc2f83f5" x="58.44" y="360.62" width="83.52" height="50.11" rx="1.49" ry="1.49"/><path class="uuid-67e4c3b1-f763-4016-928a-6595cfb9c9ea" d="M140.47,411.23H59.93c-1.1,0-1.99-.89-1.99-1.99v-47.13c0-1.1,.89-1.99,1.99-1.99h80.54c1.1,0,1.99,.89,1.99,1.99v47.13c0,1.1-.89,1.99-1.99,1.99Zm-80.54-50.11c-.55,0-.99,.45-.99,.99v47.13c0,.55,.45,.99,.99,.99h80.54c.55,0,.99-.45,.99-.99v-47.13c0-.55-.45-.99-.99-.99H59.93Z"/></g><g><g><path class="uuid-757c1496-148c-4b96-834a-64d6ed712a3e" d="M107.56,377.18c1.51-2.59,.64-5.91-1.95-7.43-2.59-1.51-5.91-.64-7.43,1.95-.08,.14-.16,.28-.23,.43-2.08-1-4.57-.12-5.57,1.96-.47,.99-.54,2.13-.18,3.16-3.69,.65-6.16,4.16-5.52,7.85,.57,3.25,3.39,5.62,6.69,5.62h13.65c3.75,0,6.79-3.03,6.79-6.78,0-3.54-2.72-6.49-6.26-6.77h0Z"/><polygon class="uuid-4825221c-b4fc-4e6b-aa54-0271bc2f83f5" points="95.5 387.53 96.69 387.53 94.29 380.38 93.1 380.38 94.55 384.69 91.48 384.69 92.92 380.38 91.73 380.38 89.34 387.53 90.53 387.53 91.11 385.81 94.92 385.81 95.5 387.53"/><path class="uuid-4825221c-b4fc-4e6b-aa54-0271bc2f83f5" d="M101.87,383.78c1.27,0,1.12-1.7,1.12-1.7,0,0-.08-1.7-1.93-1.7h-3.57v7.15h2.75c1.58,0,3.03-.14,3.03-2.14,0-1.4-1.4-1.61-1.4-1.61Zm-3.19-2.37h1.51c1.24,0,1.47,.44,1.47,.91,0,.55-.15,.98-1.47,.98h-1.51v-1.89Zm1.55,5.09h-1.55v-2.12c2,0,3.3,.06,3.3,1.12,0,1.12-1.39,1.01-1.75,1.01Z"/><path class="uuid-4825221c-b4fc-4e6b-aa54-0271bc2f83f5" d="M107.89,381.3c-1.2,0-2.26,.94-2.26,2.65s1.35,2.67,2.26,2.67,1.65-.53,1.87-1.3c.92,.15,1.3,.23,1.3,.23,0,0-.44,2.09-3.12,2.09s-3.54-2.03-3.54-3.69,.92-3.71,3.48-3.71,3.09,2.11,3.09,2.11c-.97,.24-1.26,.32-1.26,.32,0,0-.22-1.37-1.82-1.37Z"/></g><rect class="uuid-67e4c3b1-f763-4016-928a-6595cfb9c9ea" x="77.38" y="396.21" width="45.63" height="4.27"/></g></g><g><g><rect class="uuid-4825221c-b4fc-4e6b-aa54-0271bc2f83f5" x="-31.31" y="360.62" width="83.52" height="50.11" rx="1.49" ry="1.49"/><path class="uuid-67e4c3b1-f763-4016-928a-6595cfb9c9ea" d="M50.72,411.23H-29.81c-1.1,0-1.99-.89-1.99-1.99v-47.13c0-1.1,.89-1.99,1.99-1.99H50.72c1.1,0,1.99,.89,1.99,1.99v47.13c0,1.1-.89,1.99-1.99,1.99Zm-80.54-50.11c-.55,0-.99,.45-.99,.99v47.13c0,.55,.45,.99,.99,.99H50.72c.55,0,.99-.45,.99-.99v-47.13c0-.55-.45-.99-.99-.99H-29.81Z"/></g><rect class="uuid-67e4c3b1-f763-4016-928a-6595cfb9c9ea" x="-14.17" y="398.44" width="47.35" height="4.43"/><g><path class="uuid-757c1496-148c-4b96-834a-64d6ed712a3e" d="M10.49,369.68H-.15c-1.46,0-2.65,1.19-2.65,2.65v7.94c0,1.46,1.17,2.66,2.63,2.66,0,0,.01,0,.02,0H2.5l2.65,2.64v-2.64h5.34c1.46,0,2.65-1.19,2.65-2.65v-7.96c0-1.46-1.19-2.65-2.65-2.65Z"/><path class="uuid-67e4c3b1-f763-4016-928a-6595cfb9c9ea" d="M10.45,377.62h10.61c1.46,0,2.65,1.19,2.65,2.65h0v7.94c0,1.46-1.19,2.65-2.65,2.65h-2.65l-2.65,2.65v-2.65h-5.31c-1.46,0-2.65-1.19-2.65-2.65v-7.94c0-1.46,1.19-2.65,2.65-2.65Z"/></g></g><g><g><g><path d="M151.76,192.96v31.19h-4.9v-28.47l-7.26,28.47h-9.49l-7.22-28.47v28.47h-4.9v-31.19h9.49l7.44,29.31,7.44-29.31h9.4Z"/><path d="M176.53,213.36l-17.82,2.58c1.02,2.58,3.47,4.32,6.42,4.32s5.3-1.6,6.42-4.05l4.32,1.47c-1.74,4.01-5.79,6.91-10.78,6.91-6.55,0-11.54-5.03-11.54-11.4s4.99-11.4,11.54-11.4,11.54,4.9,11.45,11.58Zm-5.39-3.03c-.98-2.98-3.07-4.28-6.06-4.28-3.79,0-6.42,2.54-6.86,6.06l12.92-1.78Z"/><path d="M198.19,209.84v14.3h-4.72v-13.19c0-3.48-1.43-4.9-4.46-4.9-3.47,0-5.97,2.23-5.97,6.1v11.98h-4.72v-21.92h4.72v3.16c1.43-2.41,4.05-3.61,7.04-3.61,4.68,0,8.11,2.81,8.11,8.06Z"/><path d="M207.41,202.23h6.82v3.83h-6.82v11.54c0,1.92,1.25,2.76,2.94,2.76,1.16,0,2.23-.27,3.3-.8v4.19c-.98,.45-2.72,.8-3.96,.8-4.72,0-6.99-2.23-6.99-6.95v-11.54h-3.16v-3.83h3.16v-5.39l4.72-3.61v9Z"/><path d="M215.74,196.66c0-1.6,1.29-2.9,2.9-2.9s2.9,1.29,2.9,2.9-1.29,2.9-2.9,2.9-2.9-1.29-2.9-2.9Zm.62,5.57h4.72v21.92h-4.72v-21.92Z"/><path d="M255.03,209.58v14.57h-4.72v-13.99c0-2.9-1.34-4.1-3.74-4.1s-4.86,1.92-4.86,5.39v12.7h-4.72v-13.99c0-2.9-1.34-4.1-3.74-4.1s-4.86,1.92-4.86,5.44v12.65h-4.72v-21.92h4.72v2.99c1.29-2.27,3.52-3.43,6.1-3.43,2.76,0,5.21,1.25,6.28,3.96,1.51-2.45,3.92-3.96,7.04-3.96,4.05,0,7.22,2.72,7.22,7.8Z"/><path d="M279.81,213.36l-17.82,2.58c1.02,2.58,3.48,4.32,6.42,4.32s5.3-1.6,6.42-4.05l4.32,1.47c-1.74,4.01-5.79,6.91-10.78,6.91-6.55,0-11.54-5.03-11.54-11.4s4.99-11.4,11.54-11.4,11.54,4.9,11.45,11.58Zm-5.39-3.03c-.98-2.98-3.07-4.28-6.06-4.28-3.79,0-6.42,2.54-6.86,6.06l12.92-1.78Z"/><path d="M287.74,202.23h6.82v3.83h-6.82v11.54c0,1.92,1.25,2.76,2.94,2.76,1.16,0,2.23-.27,3.3-.8v4.19c-.98,.45-2.72,.8-3.96,.8-4.72,0-6.99-2.23-6.99-6.95v-11.54h-3.16v-3.83h3.16v-5.39l4.72-3.61v9Z"/><path d="M317.94,213.36l-17.82,2.58c1.02,2.58,3.48,4.32,6.42,4.32s5.3-1.6,6.42-4.05l4.32,1.47c-1.74,4.01-5.79,6.91-10.78,6.91-6.55,0-11.54-5.03-11.54-11.4s4.99-11.4,11.54-11.4,11.54,4.9,11.45,11.58Zm-5.39-3.03c-.98-2.98-3.07-4.28-6.06-4.28-3.79,0-6.42,2.54-6.86,6.06l12.92-1.78Z"/><path d="M331.84,201.87v4.32c-.58-.09-1.11-.13-1.65-.13-3.48,0-5.75,2.32-5.75,6.33v11.76h-4.72v-21.92h4.63v3.3c1.02-2.27,3.3-3.74,6.15-3.74,.58,0,1.11,.04,1.34,.09Z"/></g><g><polygon class="uuid-31120e9b-cf2b-4f52-8cb4-f8e9d193de32" points="71.14 223.86 92.82 223.86 77.38 192.97 71.14 192.97 71.14 223.86"/><polygon class="uuid-b083230d-1d5e-464b-b415-01a87165cfdf" points="96.1 192.97 96.1 199.21 89.86 199.21 89.86 205.45 83.62 205.45 83.62 223.86 102.34 223.86 102.34 192.97 96.1 192.97"/><rect x="68.02" y="223.86" width="37.45" height=".62"/><path class="uuid-b30ec924-5d80-4082-98e2-06983909b4a3" d="M71.14,205.45v18.4h18.72c-.17-10.19-8.48-18.4-18.72-18.4Z"/><path class="uuid-75618048-c1bc-417f-89cc-e670d03bd212" d="M71.14,214.81v9.04h9.35c-.17-5.02-4.29-9.04-9.35-9.04Z"/></g></g><g><path class="uuid-0180cb12-f304-457e-bc73-b31598464586" d="M254.16,245.47h-6.35l-1.58,4.35h-1.79l5.42-14.72h2.23l5.42,14.72h-1.79l-1.58-4.35Zm-.61-1.64l-2.56-7.04-2.56,7.04h5.13Z"/><path class="uuid-0180cb12-f304-457e-bc73-b31598464586" d="M260.7,249.34c-.81-.47-1.45-1.12-1.9-1.95-.46-.83-.68-1.74-.68-2.75s.23-1.93,.68-2.75c.46-.83,1.09-1.47,1.9-1.94,.81-.47,1.72-.7,2.71-.7,1.12,0,2.12,.29,2.99,.88,.87,.59,1.49,1.37,1.87,2.35l-1.58,.53c-.29-.67-.73-1.21-1.29-1.61s-1.23-.6-1.99-.6c-.66,0-1.26,.17-1.81,.49-.55,.33-.98,.79-1.29,1.38s-.47,1.25-.47,1.98,.16,1.39,.47,1.98,.75,1.05,1.29,1.38c.55,.33,1.15,.49,1.81,.49,.76,0,1.42-.2,1.99-.6s1-.94,1.29-1.61l1.58,.53c-.38,.98-1,1.77-1.87,2.35-.87,.59-1.86,.88-2.99,.88-1,0-1.9-.23-2.71-.7Z"/><path class="uuid-0180cb12-f304-457e-bc73-b31598464586" d="M278.15,247.99c-.41,.64-.93,1.15-1.58,1.5-.64,.36-1.38,.54-2.21,.54-.97,0-1.84-.24-2.61-.71-.77-.48-1.37-1.12-1.81-1.94-.43-.82-.65-1.73-.65-2.72s.22-1.9,.65-2.72c.43-.82,1.04-1.47,1.81-1.95,.77-.48,1.64-.71,2.61-.71,.83,0,1.56,.18,2.21,.54,.64,.36,1.17,.85,1.58,1.48v-1.81h1.62v10.34h-1.62v-1.83Zm-6.66-1.4c.31,.58,.73,1.04,1.27,1.38,.54,.34,1.15,.5,1.82,.5s1.24-.16,1.79-.48,.98-.77,1.3-1.36c.32-.58,.48-1.24,.48-1.99,0-.8-.17-1.49-.52-2.07-.34-.58-.79-1.02-1.33-1.31-.55-.29-1.12-.44-1.72-.44-.67,0-1.28,.17-1.82,.5-.54,.34-.96,.8-1.27,1.38-.31,.58-.46,1.23-.46,1.94s.15,1.36,.46,1.95Z"/><path class="uuid-0180cb12-f304-457e-bc73-b31598464586" d="M284.16,249.31c-.77-.48-1.37-1.12-1.81-1.94-.43-.82-.65-1.73-.65-2.72s.22-1.9,.65-2.72c.43-.82,1.04-1.47,1.81-1.95,.77-.48,1.64-.71,2.61-.71,.8,0,1.52,.17,2.15,.5,.64,.34,1.16,.81,1.57,1.41v-6.08h1.68v14.72h-1.62v-1.83c-.41,.64-.93,1.15-1.58,1.5-.64,.36-1.38,.54-2.21,.54-.97,0-1.84-.24-2.61-.71Zm-.27-2.72c.31,.58,.73,1.04,1.27,1.38,.54,.34,1.15,.5,1.82,.5s1.24-.16,1.79-.48,.98-.77,1.3-1.36c.32-.58,.48-1.24,.48-1.99,0-.8-.17-1.49-.52-2.07-.34-.58-.79-1.02-1.33-1.31-.55-.29-1.12-.44-1.72-.44-.67,0-1.28,.17-1.82,.5-.54,.34-.96,.8-1.27,1.38-.31,.58-.46,1.23-.46,1.94s.15,1.36,.46,1.95Z"/><path class="uuid-0180cb12-f304-457e-bc73-b31598464586" d="M296.71,249.33c-.81-.48-1.45-1.12-1.91-1.94-.46-.82-.69-1.73-.69-2.74s.23-1.93,.69-2.75c.46-.83,1.1-1.47,1.9-1.94,.81-.47,1.71-.7,2.7-.7s1.89,.23,2.68,.69c.79,.46,1.42,1.09,1.88,1.89,.46,.8,.7,1.68,.71,2.65l-8.75,1.26c.21,.83,.64,1.49,1.28,2,.64,.5,1.39,.76,2.23,.76,.77,0,1.45-.2,2.04-.6s1.03-.95,1.32-1.65l1.56,.53c-.39,.98-1.03,1.77-1.92,2.38-.89,.6-1.9,.9-3.02,.9-1,0-1.9-.24-2.71-.71Zm6.08-5.99c-.27-.84-.69-1.48-1.26-1.91-.57-.43-1.28-.65-2.12-.65-1.04,0-1.88,.33-2.53,.99-.65,.66-1.01,1.52-1.08,2.59l7-1.01Z"/><path class="uuid-0180cb12-f304-457e-bc73-b31598464586" d="M306.47,239.47h1.66v1.58c.31-.57,.73-1.02,1.27-1.32,.54-.31,1.14-.46,1.8-.46,.73,0,1.36,.17,1.89,.5,.53,.34,.9,.83,1.11,1.47,.34-.62,.8-1.1,1.39-1.45,.59-.35,1.25-.53,1.98-.53,1.01,0,1.81,.29,2.42,.88,.6,.59,.9,1.44,.9,2.54v7.13h-1.68v-6.77c0-.78-.17-1.36-.52-1.71-.34-.36-.85-.54-1.52-.54-.46,0-.9,.12-1.3,.37-.41,.25-.73,.6-.98,1.07-.25,.47-.37,1.02-.37,1.65v5.93h-1.68v-6.77c0-.78-.17-1.36-.51-1.71-.34-.36-.85-.54-1.52-.54-.46,0-.9,.12-1.3,.37-.41,.25-.73,.6-.98,1.07-.25,.47-.37,1.02-.37,1.65v5.93h-1.68v-10.34Z"/><path class="uuid-0180cb12-f304-457e-bc73-b31598464586" d="M326.06,249.9l-4.04-10.43h1.79l3.11,8.2,3.17-8.2h1.79l-5.51,14.13h-1.74l1.43-3.7Z"/></g></g></g></g></g></svg>