<svg xmlns="http://www.w3.org/2000/svg" fill="none" viewBox="0 0 1110 395" role="img" height="100%" width="100%">
  <path fill="#FF80AB" d="m420.84 227.95 35.29-68.21v68.21h-35.3Zm-22.74 20.92h58.03v27.29h23.46v-27.29h17.83v-20.92H479.6v-79.13h-40.74l-40.75 79.13v20.92Zm157 29.83c30.92 0 49.66-27.83 49.66-66.21 0-38.38-18.74-66.21-49.66-66.21-30.93 0-49.85 27.83-49.85 66.21 0 38.38 18.92 66.21 49.85 66.21Zm-25.47-66.21c0-25.28 8-44.02 25.47-44.02 17.28 0 25.46 18.74 25.46 44.02 0 25.28-8.18 44.02-25.46 44.02-17.47 0-25.47-18.73-25.47-44.02Zm107.58 15.46 35.29-68.21v68.21h-35.3Zm-22.74 20.92h58.03v27.29h23.47v-27.29h17.82v-20.92h-17.82v-79.13h-40.75l-40.75 79.13v20.92Z"/>
  <path fill="#FF403D" d="M378.55 111h19.62l11.31-58.21h-11.64l-10.15 53.39-10.22-53.4h-18.38l-10.23 53.65-10.15-53.64h-11.64L338.3 111h19.62l10.31-52.89L378.56 111Zm34.11 0h10.48V90.8c0-7.74 4.16-11.57 10.31-11.57 1.25 0 2.41.17 3.33.34V69.5a8.65 8.65 0 0 0-2.58-.25c-4.9 0-9.15 2.5-11.14 6.74v-5.9h-10.4V111Zm47.82 1.08c12.22 0 21.78-9.31 21.78-21.54 0-12.22-9.56-21.53-21.78-21.53-12.31 0-21.79 9.3-21.79 21.53s9.48 21.54 21.79 21.54Zm-11.06-21.54c0-6.65 4.82-11.64 11.06-11.64 6.15 0 10.97 4.99 10.97 11.64 0 6.66-4.82 11.64-10.97 11.64-6.24 0-11.06-4.98-11.06-11.64ZM488.59 111h10.48V89.8c0-6.9 4.24-10.73 9.98-10.73 5.07 0 7.57 2.5 7.57 8.06V111h10.48V84.3c0-9.8-6.33-15.05-15.14-15.05-5.49 0-10.31 2.25-12.97 6.66v-5.82h-10.4V111Zm55.28 1.25-9.24 4.24c3.16 6.57 10.4 10.64 19.8 10.64 12.8 0 21.04-8.56 21.04-19.62V70.09h-10.15v5.07c-2.83-3.58-6.99-5.9-12.72-5.9-11.4 0-19.55 9.14-19.55 20.78 0 11.56 8.15 20.71 19.55 20.71 5.49 0 9.56-2.16 12.39-5.49v1.91c0 6.16-3.66 10.65-10.48 10.65-5.32 0-8.81-2.58-10.64-5.57Zm-.09-22.2c0-6.4 4.58-11.15 10.73-11.15 5.74 0 10.81 4.24 10.81 11.14 0 6.49-4.82 11.15-10.81 11.15-6.15 0-10.73-4.83-10.73-11.15Zm77.8 21.78c11.47 0 19.79-9.4 19.79-21.29 0-11.89-8.32-21.29-19.8-21.29-5.73 0-9.97 2.42-12.8 6.24v-5.4h-10.15v55.88h10.48v-19.88c2.83 3.5 6.9 5.74 12.48 5.74Zm-12.81-21.29c0-6.82 4.9-11.64 10.9-11.64 6.23 0 10.89 4.99 10.89 11.64 0 6.66-4.66 11.64-10.9 11.64-5.74 0-10.9-4.49-10.9-11.64ZM678.53 111h10.15V70.09h-10.15v5.4c-2.83-3.82-7.07-6.24-12.8-6.24-11.48 0-19.71 9.4-19.71 21.3 0 11.89 8.23 21.28 19.7 21.28 5.74 0 9.98-2.41 12.81-6.23v5.4Zm-21.79-20.46c0-6.65 4.74-11.64 10.9-11.64 5.74 0 10.9 4.5 10.9 11.64 0 6.82-4.91 11.64-10.9 11.64-6.16 0-10.9-4.98-10.9-11.64Zm49.22 21.7-9.23 4.25c3.16 6.57 10.4 10.64 19.79 10.64 12.8 0 21.04-8.56 21.04-19.62V70.09H727.4v5.07c-2.82-3.58-6.98-5.9-12.72-5.9-11.4 0-19.54 9.14-19.54 20.78 0 11.56 8.15 20.71 19.54 20.71 5.49 0 9.56-2.16 12.39-5.49v1.91c0 6.16-3.66 10.65-10.48 10.65-5.32 0-8.81-2.58-10.64-5.57Zm-.09-22.2c0-6.4 4.58-11.14 10.73-11.14 5.74 0 10.81 4.24 10.81 11.14 0 6.49-4.82 11.15-10.8 11.15-6.16 0-10.74-4.83-10.74-11.15ZM765.66 112c9.4 0 16.71-5.16 20.12-12.9l-9.56-3.23c-1.83 3.9-5.57 6.48-10.56 6.48-4.74 0-8.57-2.5-10.4-6.4l31.77-4.5c.33-13.05-9.15-22.36-21.45-22.36-12.4 0-21.63 9.31-21.63 21.45 0 11.98 9.4 21.46 21.7 21.46Zm-11.31-24.2c1-5.57 5.07-9.4 10.98-9.4 4.99 0 8.31 2 10.14 6.49l-21.12 2.9Z"/>
  <path fill="#196CFF" d="M593.9 299.75v22.17l-9.04-22.17h-8.84V324h4.64v-22.14l9.01 22.14h8.87v-24.25h-4.64Zm16.59 24.7a8.9 8.9 0 0 0 9.08-8.97 8.9 8.9 0 0 0-9.08-8.98 8.87 8.87 0 0 0-9.08 8.98c0 5.09 3.95 8.97 9.08 8.97Zm-4.6-8.97c0-2.78 2-4.86 4.6-4.86 2.56 0 4.57 2.08 4.57 4.86 0 2.77-2 4.85-4.57 4.85-2.6 0-4.6-2.08-4.6-4.85Zm21.57-15.77-4.37 3.33v3.91h-2.46v3.64h2.46v8.28c0 3.68 1.98 5.48 5.68 5.48 1.15 0 2.53-.25 3.36-.66v-3.78c-.8.38-1.6.59-2.5.59-1.24 0-2.17-.59-2.17-2v-7.9h5.12v-3.65h-5.12v-7.24ZM647.52 324v-13.4h4.68v-3.65h-4.68v-1.76c0-1.5.9-2.08 2.15-2.08.9 0 1.8.24 2.53.59v-3.78a8.93 8.93 0 0 0-3.36-.66c-3.71 0-5.69 1.8-5.69 5.48v2.21h-2.45v3.64h2.45V324h4.37Zm14.3.45a8.9 8.9 0 0 0 9.08-8.97 8.9 8.9 0 0 0-9.08-8.98 8.87 8.87 0 0 0-9.08 8.98c0 5.09 3.95 8.97 9.08 8.97Zm-4.6-8.97c0-2.78 2-4.86 4.6-4.86 2.56 0 4.57 2.08 4.57 4.86 0 2.77-2 4.85-4.57 4.85-2.6 0-4.6-2.08-4.6-4.85Zm32.25-8.53h-4.36v8.5c0 3.07-1.8 4.74-4.09 4.74-2.15 0-3.22-1.14-3.22-3.4v-9.84h-4.37v11.13c0 4.08 2.53 6.27 6.27 6.27 2.32 0 4.47-1.04 5.55-2.95v2.6h4.22v-17.05Zm3.39 17.05h4.36v-8.84c0-2.87 1.77-4.47 4.16-4.47 2.11 0 3.15 1.04 3.15 3.37V324h4.37v-11.12c0-4.1-2.63-6.27-6.3-6.27-2.3 0-4.3.93-5.41 2.77v-2.43h-4.33V324Zm26.73.35c2.4 0 4.16-1 5.34-2.6V324h4.23v-24.25h-4.37V309a6.38 6.38 0 0 0-5.2-2.4c-4.78 0-8.2 3.92-8.2 8.88 0 4.95 3.42 8.87 8.2 8.87Zm-3.74-8.87c0-2.78 1.98-4.86 4.54-4.86 2.4 0 4.54 1.88 4.54 4.86 0 2.84-2.04 4.85-4.54 4.85-2.56 0-4.54-2.08-4.54-4.85Z"/>
  <path fill="#FFC738" d="M764.1 271.4c5.34 0 9.4-3.04 9.4-7.69 0-3.56-2.36-5.64-7.11-6.86l-2.63-.69c-2.5-.66-4.27-1.28-4.27-2.91 0-1.46 1.25-2.74 3.88-2.74a6.85 6.85 0 0 1 5.93 3.23l3.78-2.43c-1.25-2.4-4.5-4.99-9.53-4.99-5.96 0-9.12 3.47-9.12 7.24 0 3.09 2.12 5.37 7.42 6.72l2.46.63c2.53.62 4.2 1.42 4.2 3.15 0 1.77-1.53 3.08-4.37 3.08-3.16 0-5.9-1.76-7.04-3.84l-3.57 2.46c1.91 4.09 6.42 5.65 10.57 5.65Zm20.31 0a8.9 8.9 0 0 0 9.08-8.97 8.9 8.9 0 0 0-9.08-8.97 8.87 8.87 0 0 0-9.07 8.97c0 5.1 3.95 8.98 9.07 8.98Zm-4.6-8.97c0-2.77 2-4.85 4.6-4.85 2.57 0 4.58 2.08 4.58 4.85 0 2.77-2.01 4.85-4.58 4.85-2.6 0-4.6-2.08-4.6-4.85Zm16.32 8.53h4.37v-9.22c0-2.67 1.62-4.05 3.43-4.05 1.7 0 2.6.9 2.6 2.8v10.47h4.36v-9.25c0-2.64 1.63-4.02 3.43-4.02 1.66 0 2.56.9 2.56 2.8v10.47h4.37v-11.5c0-3.92-2.39-5.9-5.65-5.9a6.33 6.33 0 0 0-5.4 2.95c-.87-1.98-2.7-2.95-4.96-2.95-1.97 0-3.77.9-4.78 2.67v-2.32h-4.33v17.05Zm36.67.41a8.9 8.9 0 0 0 8.39-5.37l-3.99-1.35a4.67 4.67 0 0 1-4.4 2.7 4.64 4.64 0 0 1-4.33-2.67l13.24-1.87c.13-5.44-3.82-9.32-8.94-9.32-5.17 0-9.01 3.88-9.01 8.94a8.88 8.88 0 0 0 9.04 8.94Zm-4.71-10.08c.41-2.32 2.11-3.92 4.57-3.92 2.08 0 3.47.83 4.23 2.7l-8.8 1.22Zm21.24-14.62-4.37 3.32v3.92h-2.46v3.64h2.46v8.28c0 3.67 1.98 5.47 5.68 5.47 1.15 0 2.53-.24 3.37-.66v-3.77c-.8.38-1.6.59-2.5.59-1.25 0-2.18-.6-2.18-2.01v-7.9h5.13v-3.64h-5.13v-7.24Zm17.38 6.9c-2.26 0-4.27.93-5.38 2.7v-9.57h-4.36v24.26h4.37v-8.84c0-2.88 1.76-4.47 4.15-4.47 2.12 0 3.16 1.04 3.16 3.36v9.95H873v-11.13c0-4.08-2.63-6.27-6.3-6.27Zm9.51 17.39h4.37V253.9h-4.37v17.05Zm-.45-21.35a2.63 2.63 0 1 0 5.27 0 2.6 2.6 0 0 0-2.63-2.56 2.6 2.6 0 0 0-2.64 2.56Zm8.24 21.35h4.36v-8.84c0-2.88 1.77-4.47 4.16-4.47 2.11 0 3.15 1.04 3.15 3.36v9.95h4.37v-11.13c0-4.08-2.64-6.27-6.3-6.27-2.3 0-4.3.94-5.41 2.77v-2.42H884v17.05Zm23.02.52-3.84 1.76c1.31 2.74 4.33 4.44 8.24 4.44 5.34 0 8.77-3.57 8.77-8.18v-15.6h-4.23v2.12a6.44 6.44 0 0 0-5.3-2.46c-4.74 0-8.14 3.81-8.14 8.67 0 4.81 3.4 8.62 8.14 8.62a6.5 6.5 0 0 0 5.17-2.29v.8c0 2.57-1.53 4.44-4.37 4.44a4.98 4.98 0 0 1-4.44-2.32Zm-.03-9.25c0-2.67 1.9-4.65 4.47-4.65 2.4 0 4.5 1.77 4.5 4.65a4.49 4.49 0 1 1-8.97 0Zm15.36-7.94h3.91l2.29-7.59h-4.23l-1.97 7.59Zm13.47 17.12c3.91 0 7-2.26 7-5.69 0-2.63-1.67-4.15-5.1-5.02l-1.97-.45c-1.74-.45-2.64-.8-2.64-1.66 0-.8.7-1.5 2.19-1.5 1.8 0 3.19.87 3.95 2.12l3.36-2.08c-.97-1.8-3.33-3.67-7.14-3.67-4.57 0-6.83 2.6-6.83 5.4 0 2.19 1.39 3.95 5.38 4.92l1.83.45c1.56.42 2.56.84 2.56 1.77 0 1-.9 1.66-2.56 1.66-2.08 0-3.95-1.17-4.68-2.46l-3.11 2.19c1.42 2.94 4.6 4.02 7.76 4.02Zm17.83-.45h7.83l2.77-15.42 2.78 15.42h7.69l3.01-17.05h-4.33l-2.63 15.45-2.74-15.45h-7.62l-2.67 15.52-2.63-15.52h-4.5l3.04 17.05Zm26.81 0h4.37v-8.42c0-3.23 1.73-4.82 4.3-4.82.52 0 1 .07 1.38.14v-4.2c-.14-.06-.59-.1-1.07-.1a4.99 4.99 0 0 0-4.65 2.8v-2.45h-4.33v17.05Zm19.93.45a8.89 8.89 0 0 0 9.07-8.98c0-5.1-3.98-8.97-9.07-8.97a8.87 8.87 0 0 0-9.08 8.97c0 5.1 3.95 8.98 9.08 8.98Zm-4.61-8.98c0-2.77 2-4.85 4.61-4.85 2.56 0 4.57 2.08 4.57 4.85 0 2.77-2.01 4.85-4.57 4.85-2.6 0-4.61-2.08-4.61-4.85Zm16.32 8.53h4.37v-8.84c0-2.88 1.76-4.47 4.16-4.47 2.11 0 3.15 1.04 3.15 3.36v9.95h4.36v-11.13c0-4.08-2.63-6.27-6.3-6.27-2.29 0-4.3.94-5.41 2.77v-2.42h-4.33v17.05Zm23.03.52-3.84 1.76c1.31 2.74 4.33 4.44 8.24 4.44 5.34 0 8.77-3.57 8.77-8.18v-15.6h-4.23v2.12a6.44 6.44 0 0 0-5.3-2.46c-4.75 0-8.14 3.81-8.14 8.67 0 4.81 3.39 8.62 8.14 8.62 2.29 0 3.98-.9 5.16-2.29v.8c0 2.57-1.52 4.44-4.36 4.44a4.98 4.98 0 0 1-4.44-2.32Zm-.03-9.25c0-2.67 1.9-4.65 4.47-4.65 2.39 0 4.5 1.77 4.5 4.65a4.49 4.49 0 1 1-8.97 0Z"/>
  <path fill="#00DB91" d="M372.84 307.6c0-11.3-8.65-20.06-20.18-20.06s-20.18 8.76-20.18 20.07c0 11.25 8.65 20.06 20.18 20.06s20.18-8.81 20.18-20.06Zm-20.18 12.42c-7.54 0-13.14-5.43-13.14-12.41 0-7.05 5.6-12.48 13.14-12.48 7.54 0 13.14 5.44 13.14 12.48 0 6.98-5.6 12.41-13.14 12.41Zm20.13-50.29c0-8.15-6.21-14.52-14.36-14.52-8.15 0-14.36 6.37-14.36 14.52 0 8.2 6.2 14.53 14.36 14.53 8.15 0 14.36-6.32 14.36-14.53Zm-14.36 7.38c-4.44 0-7.76-3.22-7.76-7.38 0-4.1 3.32-7.31 7.76-7.31 4.43 0 7.76 3.21 7.76 7.31 0 4.16-3.33 7.38-7.76 7.38Zm14.36-39.48c0-8.15-6.21-14.53-14.36-14.53-8.15 0-14.36 6.38-14.36 14.53 0 8.2 6.2 14.52 14.36 14.52 8.15 0 14.36-6.32 14.36-14.52ZM358.43 245c-4.44 0-7.76-3.21-7.76-7.37 0-4.1 3.32-7.32 7.76-7.32 4.43 0 7.76 3.22 7.76 7.32 0 4.16-3.33 7.37-7.76 7.37Zm14.19-41.2c0-7.65-6.26-13.19-14.2-13.19-7.92 0-14.18 5.54-14.18 13.2 0 3.82 1.6 6.65 4.15 8.53h-3.6v6.77h37.25v-6.99H368.8a10.21 10.21 0 0 0 3.83-8.31Zm-14.2 8.54c-4.54 0-7.75-3.27-7.75-7.26 0-4.16 3.32-7.26 7.76-7.26 4.43 0 7.76 3.1 7.76 7.26 0 3.82-3 7.26-7.76 7.26Zm14.37-36.25c0-6.27-3.6-11.2-9.1-11.2-4.2 0-6.65 2.66-8.03 8.15l-.73 3.16c-.72 2.77-1.27 4.21-2.66 4.21-1.27 0-2.38-1.1-2.38-3.5 0-2.88 1.39-5.1 3.38-6.31l-3.32-5.38c-2.89 1.55-5.88 5.32-5.88 11.42 0 7.32 4.16 10.92 8.65 10.92 3.49 0 6.32-2.22 7.87-8.6l.72-2.93c.67-2.5 1.33-4.1 2.83-4.1 1.6 0 2.66 1.44 2.66 4.1 0 3.33-1.89 6.32-3.94 7.48l3.5 5c4.7-2.28 6.43-7.38 6.43-12.42Zm-39.53-23.56V160l27.22-.55v-6.43l-27.22-.5Zm34.98 8.15c2.44 0 4.44-2 4.44-4.44 0-2.38-2-4.38-4.44-4.38-2.33 0-4.27 2-4.27 4.38a4.38 4.38 0 0 0 4.27 4.44Z"/>
  <path fill="#969CF5" d="M757.81 225.59c8.54 0 15.02-4.88 15.02-12.31 0-5.71-3.76-9.04-11.36-10.98l-4.21-1.1c-4-1.06-6.82-2.06-6.82-4.66 0-2.33 2-4.38 6.2-4.38 4.27 0 7.71 2.21 9.49 5.15l6.04-3.88c-2-3.83-7.2-7.98-15.25-7.98-9.53 0-14.58 5.54-14.58 11.58 0 4.94 3.38 8.6 11.87 10.76l3.93 1c4.05 1 6.71 2.27 6.71 5.04 0 2.83-2.44 4.94-6.98 4.94-5.05 0-9.43-2.83-11.26-6.16l-5.7 3.94c3.04 6.54 10.25 9.03 16.9 9.03Zm32.5 0c8.15 0 14.53-6.21 14.53-14.36 0-8.15-6.38-14.36-14.53-14.36-8.2 0-14.52 6.2-14.52 14.36 0 8.15 6.32 14.36 14.52 14.36Zm-7.37-14.36c0-4.44 3.21-7.76 7.37-7.76 4.1 0 7.32 3.32 7.32 7.76 0 4.43-3.22 7.76-7.32 7.76-4.16 0-7.37-3.33-7.37-7.76Zm26.11 13.63h6.99V211.4c0-5.15 2.77-7.7 6.87-7.7.84 0 1.61.1 2.22.22v-6.71a5.77 5.77 0 0 0-1.72-.17c-3.27 0-6.1 1.67-7.43 4.5v-3.94h-6.93v27.27Zm19.82 0h6.99V211.4c0-5.15 2.77-7.7 6.87-7.7.83 0 1.6.1 2.22.22v-6.71a5.77 5.77 0 0 0-1.72-.17c-3.27 0-6.1 1.67-7.43 4.5v-3.94h-6.93v27.27Zm29.13 9.98h7.26l10.15-37.25h-7.27l-7.04 25.94-7.04-25.94h-7.26l7.48 27.27h6.44l-2.72 9.98Zm29.43-48.78h-7.48l.55 27.22h6.43l.5-27.22Zm-8.15 34.98c0 2.44 2 4.43 4.44 4.43 2.38 0 4.38-2 4.38-4.43 0-2.33-2-4.27-4.38-4.27a4.38 4.38 0 0 0-4.44 4.27Z"/>
  <path fill="#CC660A" d="M63.4 280.3h19.12c7.82 0 13.03-4.27 13.03-10.92 0-4.1-2.38-7.37-6.04-9.15 2.94-1.77 4.77-4.54 4.77-8.09 0-6.6-5.44-10.64-13.14-10.64H63.4v38.8Zm7.42-6.7v-9.76h11.2c3.39 0 5.94 1.6 5.94 4.88 0 3.27-2.55 4.88-5.94 4.88h-11.2Zm0-15.97v-9.43h9.98c3.39 0 5.88 1.5 5.88 4.72 0 3.21-2.5 4.7-5.88 4.7h-9.98Zm28.73 22.67h6.99v-13.47c0-5.15 2.77-7.7 6.87-7.7.84 0 1.61.1 2.22.22v-6.71a5.76 5.76 0 0 0-1.72-.17c-3.27 0-6.1 1.67-7.43 4.5v-3.94h-6.93v27.27Zm31.88.72c8.15 0 14.53-6.2 14.53-14.35 0-8.16-6.38-14.36-14.53-14.36-8.2 0-14.53 6.2-14.53 14.36 0 8.14 6.32 14.35 14.53 14.35Zm-7.37-14.35c0-4.44 3.21-7.77 7.37-7.77 4.1 0 7.32 3.33 7.32 7.77 0 4.43-3.22 7.76-7.32 7.76-4.16 0-7.37-3.33-7.37-7.76Zm44.8 13.63h8.87l-12.2-14.74 11.3-12.53h-8.53l-11.14 12.58V241.5h-6.99v38.8h6.99v-14.58l11.7 14.58Zm22.55.67c6.27 0 11.15-3.44 13.42-8.6l-6.38-2.16a7.46 7.46 0 0 1-7.03 4.33 7.43 7.43 0 0 1-6.93-4.27l21.17-3c.22-8.7-6.1-14.9-14.3-14.9-8.26 0-14.42 6.2-14.42 14.3a14.2 14.2 0 0 0 14.47 14.3Zm-7.53-16.14c.66-3.7 3.38-6.26 7.31-6.26 3.33 0 5.55 1.33 6.77 4.32l-14.09 1.94Zm25.68 15.47h6.99v-14.13c0-4.6 2.83-7.16 6.65-7.16 3.38 0 5.05 1.67 5.05 5.38v15.91h6.98v-17.8c0-6.53-4.21-10.03-10.09-10.03-3.66 0-6.87 1.5-8.65 4.44v-3.88h-6.93v27.27Z"/>
  <path fill="#969CF5" d="M295.7 331v-8.84l-26.25-5.1v5.25l24.07 4.57-24.07 4.61v8.3l24.19 4.6-24.2 4.58v5.25l26.26-5.06v-8.85l-23.85-4.65L295.7 331Zm.45-23.83a9.63 9.63 0 0 0-5.81-9.07l-1.47 4.3a5.05 5.05 0 0 1 2.93 4.77 5.02 5.02 0 0 1-2.89 4.69l-2.03-14.33c-5.88-.15-10.08 4.13-10.08 9.68a9.5 9.5 0 0 0 9.67 9.75 9.6 9.6 0 0 0 9.68-9.79Zm-10.91 5.1c-2.52-.45-4.24-2.29-4.24-4.95 0-2.25.9-3.75 2.92-4.57l1.31 9.52Zm-7.58-14.94v-4.24l-8.21-2.47v4.57l8.21 2.14Zm18.04-7.9v-4.72h-9.12c-3.48 0-5.2-1.87-5.2-4.65 0-.56.07-1.09.14-1.5H277a3.9 3.9 0 0 0-.12 1.16 5.4 5.4 0 0 0 3.04 5.03h-2.66v4.69h18.45Zm.45-21.52a9.63 9.63 0 0 0-5.81-9.07l-1.47 4.31a5.05 5.05 0 0 1 2.93 4.76 5.02 5.02 0 0 1-2.89 4.69l-2.03-14.33c-5.88-.14-10.08 4.13-10.08 9.68a9.5 9.5 0 0 0 9.67 9.75 9.6 9.6 0 0 0 9.68-9.79Zm-10.91 5.1c-2.52-.45-4.24-2.28-4.24-4.95 0-2.25.9-3.75 2.92-4.57l1.31 9.52Zm10.9-33.3a9.63 9.63 0 0 0-5.8-9.07l-1.47 4.31a5.05 5.05 0 0 1 2.93 4.76 5.02 5.02 0 0 1-2.89 4.7l-2.03-14.33c-5.88-.15-10.08 4.12-10.08 9.67a9.5 9.5 0 0 0 9.67 9.75 9.6 9.6 0 0 0 9.68-9.79Zm-10.9 5.1c-2.52-.45-4.24-2.28-4.24-4.95 0-2.25.9-3.75 2.92-4.57l1.31 9.52Zm10.46-17.37v-4.73h-9.98c-2.89 0-4.39-1.76-4.39-3.71 0-1.84.98-2.81 3.04-2.81h11.33v-4.73h-10.01c-2.86 0-4.36-1.76-4.36-3.71 0-1.8.98-2.78 3.04-2.78h11.33v-4.72h-12.45c-4.24 0-6.38 2.59-6.38 6.11a6.85 6.85 0 0 0 3.19 5.85c-2.14.94-3.19 2.93-3.19 5.36 0 2.14.98 4.1 2.89 5.18h-2.51v4.69h18.45Zm.37-41.08c0-5.17-4.24-8.89-9.6-8.89-5.36 0-9.6 3.72-9.6 8.9a6.9 6.9 0 0 0 2.59 5.62h-10.01v4.72h26.25v-4.57h-2.44a6.85 6.85 0 0 0 2.81-5.78Zm-9.6 5.78c-3.22 0-5.25-2.33-5.25-4.92 0-2.77 2.25-4.9 5.25-4.9s5.25 2.13 5.25 4.9c0 2.7-2.17 4.92-5.25 4.92Zm9.23-31.42v-4.58h-18.45v4.58h2.44a6.86 6.86 0 0 0-2.82 5.77c0 5.18 4.24 8.9 9.6 8.9 5.36 0 9.6-3.72 9.6-8.9 0-2.58-1.08-4.5-2.81-5.77h2.44Zm-9.23 9.82c-3 0-5.25-2.13-5.25-4.9 0-2.6 2.03-4.92 5.25-4.92 3.08 0 5.25 2.21 5.25 4.91 0 2.78-2.25 4.91-5.25 4.91Zm9.23-18.1v-4.73h-9.12c-3.48 0-5.2-1.87-5.2-4.65 0-.56.07-1.09.14-1.5H277c-.08.15-.12.64-.12 1.16a5.4 5.4 0 0 0 3.04 5.03h-2.66v4.69h18.45Zm0-13.4v-4.73h-9.12c-3.48 0-5.2-1.88-5.2-4.65 0-.56.07-1.09.14-1.5H277a3.9 3.9 0 0 0-.12 1.16 5.4 5.4 0 0 0 3.04 5.03h-2.66v4.68h18.45Zm0-26.4v-4.58h-18.45v4.58h2.44a6.85 6.85 0 0 0-2.82 5.77c0 5.17 4.24 8.89 9.6 8.89 5.36 0 9.6-3.72 9.6-8.89 0-2.59-1.08-4.5-2.81-5.77h2.44Zm-9.23 9.82c-3 0-5.25-2.14-5.25-4.91 0-2.59 2.03-4.91 5.25-4.91 3.08 0 5.25 2.2 5.25 4.9 0 2.78-2.25 4.92-5.25 4.92Zm9.71-25.16c0-4.23-2.43-7.57-6.14-7.57-2.86 0-4.5 1.8-5.44 5.51l-.49 2.14c-.49 1.87-.86 2.85-1.8 2.85-.86 0-1.61-.75-1.61-2.36 0-1.95.94-3.45 2.29-4.28l-2.25-3.64c-1.95 1.05-3.98 3.6-3.98 7.73 0 4.95 2.81 7.39 5.85 7.39 2.36 0 4.27-1.5 5.32-5.82l.5-1.98c.44-1.7.9-2.78 1.9-2.78 1.1 0 1.8.98 1.8 2.78 0 2.25-1.27 4.27-2.66 5.06l2.36 3.37c3.2-1.53 4.36-4.98 4.36-8.4Zm-.03-19.08a9.63 9.63 0 0 0-5.81-9.08l-1.47 4.31a5.05 5.05 0 0 1 2.93 4.77 5.02 5.02 0 0 1-2.89 4.68l-2.03-14.32c-5.88-.15-10.08 4.12-10.08 9.67a9.5 9.5 0 0 0 9.67 9.75 9.6 9.6 0 0 0 9.68-9.78Zm-10.91 5.1c-2.52-.45-4.24-2.3-4.24-4.95 0-2.25.9-3.75 2.92-4.58l1.31 9.53Zm10.83-25.48c0-2.59-1.08-4.5-2.81-5.78h2.44V47.5h-26.25v4.72h10.01a6.9 6.9 0 0 0-2.59 5.63c0 5.17 4.24 8.89 9.6 8.89 5.36 0 9.6-3.72 9.6-8.9Zm-9.6 4.05c-3 0-5.25-2.14-5.25-4.91 0-2.6 2.03-4.92 5.25-4.92 3.08 0 5.25 2.22 5.25 4.92 0 2.77-2.25 4.9-5.25 4.9Z"/>
  <path fill="#00DB91" d="M762.01 156.64c3.54 0 6.24-1.07 8-3.43v2.95h4.1v-13.13h-11.79v4.33h7.07c-.45 2.87-3.57 4.92-6.82 4.92-4.3 0-7.7-3.5-7.7-8.28 0-4.75 3.4-8.25 7.7-8.25a7.52 7.52 0 0 1 7.03 4.64l4.37-1.45c-1.8-4.61-6.07-7.52-11.44-7.52-7.1 0-12.44 5.5-12.44 12.58 0 7.1 5.37 12.64 11.92 12.64Zm15.47-.48h4.37V131.9h-4.37v24.26Zm7.78 0h4.37V139.1h-4.37v17.05Zm-.45-21.35a2.63 2.63 0 1 0 5.27 0 2.6 2.6 0 0 0-2.63-2.56 2.6 2.6 0 0 0-2.64 2.56Zm14.27-2.94-4.37 3.32v3.92h-2.46v3.64h2.46v8.28c0 3.67 1.98 5.47 5.68 5.47 1.15 0 2.53-.24 3.36-.65v-3.78c-.8.38-1.59.59-2.5.59-1.24 0-2.17-.6-2.17-2.01v-7.9h5.12v-3.64h-5.12v-7.24Zm15.1 24.74c3.92 0 6.9-2.05 8.29-5.34l-4.13-1.35a4.5 4.5 0 0 1-4.15 2.63c-2.53 0-4.5-2.14-4.5-4.92 0-2.77 1.97-4.92 4.5-4.92a4.5 4.5 0 0 1 4.15 2.64l4.13-1.35c-1.35-3.26-4.37-5.34-8.28-5.34a8.82 8.82 0 0 0-8.98 8.97 8.82 8.82 0 0 0 8.98 8.98Zm20.14-17.85c-2.25 0-4.26.94-5.37 2.7v-9.56h-4.37v24.26h4.37v-8.84c0-2.87 1.77-4.47 4.16-4.47 2.11 0 3.15 1.04 3.15 3.36v9.95h4.37v-11.12c0-4.1-2.64-6.28-6.31-6.28Z"/>
  <path fill="#196CFF" d="M153.54 198.22c7.06 0 12.54-5.4 12.54-12.61 0-7.2-5.48-12.61-12.54-12.61-7.04 0-12.55 5.4-12.55 12.61 0 7.2 5.51 12.61 12.55 12.61Zm-7.76-12.61c0-4.71 3.4-8.21 7.76-8.21 4.4 0 7.8 3.5 7.8 8.21 0 4.71-3.4 8.21-7.8 8.21-4.37 0-7.76-3.5-7.76-8.21Zm32.81-5.27c-2.25 0-4.26.94-5.37 2.7v-9.56h-4.36v24.26h4.36v-8.84c0-2.88 1.77-4.47 4.16-4.47 2.12 0 3.15 1.04 3.15 3.36v9.95h4.37V186.6c0-4.08-2.63-6.27-6.3-6.27Zm15.92 17.4h4.36v-8.84c0-2.88 1.77-4.47 4.16-4.47 2.11 0 3.15 1.04 3.15 3.36v9.95h4.37V186.6c0-4.08-2.64-6.27-6.3-6.27-2.3 0-4.3.94-5.41 2.78v-2.43h-4.33v17.05Zm27.6.45a8.9 8.9 0 0 0 9.08-8.98 8.9 8.9 0 0 0-9.08-8.97 8.87 8.87 0 0 0-9.08 8.97c0 5.1 3.95 8.98 9.08 8.98Zm-4.6-8.98c0-2.77 2-4.85 4.6-4.85 2.56 0 4.57 2.08 4.57 4.85 0 2.78-2 4.85-4.57 4.85-2.6 0-4.6-2.07-4.6-4.85Zm21.62-15.73h-4.68l.34 17.02h4.02l.32-17.02Zm-5.1 21.87a2.78 2.78 0 0 0 2.77 2.77 2.77 2.77 0 0 0 2.74-2.77 2.73 2.73 0 0 0-2.74-2.67 2.74 2.74 0 0 0-2.77 2.67Z"/>
  <path fill="#FFC738" d="M417.55 328.96h27.83v-6.93h-20.4v-9.54h18.29v-6.98h-18.3v-8.43h19.85v-6.93h-27.27v38.8Zm32.47 0h6.99v-13.47c0-5.16 2.77-7.71 6.87-7.71.83 0 1.6.11 2.22.22v-6.7a5.76 5.76 0 0 0-1.72-.17c-3.27 0-6.1 1.66-7.43 4.49v-3.94h-6.93v27.28Zm19.82 0h6.98v-13.47c0-5.16 2.77-7.71 6.88-7.71.83 0 1.6.11 2.21.22v-6.7a5.76 5.76 0 0 0-1.71-.17c-3.27 0-6.1 1.66-7.43 4.49v-3.94h-6.93v27.28Zm31.87.72c8.15 0 14.53-6.21 14.53-14.36 0-8.15-6.38-14.36-14.53-14.36-8.2 0-14.52 6.2-14.52 14.36 0 8.15 6.32 14.36 14.52 14.36Zm-7.37-14.36c0-4.44 3.22-7.76 7.37-7.76 4.1 0 7.32 3.32 7.32 7.76 0 4.43-3.21 7.76-7.32 7.76-4.15 0-7.37-3.33-7.37-7.76Zm26.12 13.64h6.98v-13.47c0-5.16 2.77-7.71 6.88-7.71.83 0 1.6.11 2.21.22v-6.7a5.76 5.76 0 0 0-1.71-.17c-3.28 0-6.1 1.66-7.43 4.49v-3.94h-6.93v27.28Z"/>
</svg>
