<svg id="ac866aa4-477d-4b84-95fa-bd8706992541" data-name="Layer 1" xmlns="http://www.w3.org/2000/svg" viewBox="0 0 80.62 80.53"><path d="M49.07,15.28c-.12,3.84-2.79,9.28-7.24,9.28a5.1,5.1,0,0,1-5.1-5.07v0A15.3,15.3,0,0,0,22.88,4.6,15.25,15.25,0,0,1,33.82,0,15.78,15.78,0,0,1,47.08,7.71,13.88,13.88,0,0,1,49.07,15.28Z" style="fill:#175fff"/><path d="M31.31,15.62c2.38,3,3.83,8.9.43,11.76a5.11,5.11,0,0,1-7.17-.61l0,0A15.31,15.31,0,0,0,4.39,24.27,15.29,15.29,0,0,1,25.27,11.21,14.45,14.45,0,0,1,31.31,15.62Z" style="fill:#175fff"/><path d="M17.93,27.29c3.76.78,8.66,4.35,7.88,8.73a5.09,5.09,0,0,1-5.88,4.14h-.05a15.29,15.29,0,0,0-17,11.07A15.25,15.25,0,0,1,.23,39.65,15.44,15.44,0,0,1,10.47,27.79,14.41,14.41,0,0,1,17.93,27.29Z" style="fill:#175fff"/><path d="M15.18,44.83c3.38-1.82,9.43-2.23,11.66,1.62a5.11,5.11,0,0,1-1.85,7l0,0A15.28,15.28,0,0,0,19,72.84a15.2,15.2,0,0,1-9.46-7.17A15.43,15.43,0,0,1,9.79,50,14.38,14.38,0,0,1,15.18,44.83Z" style="fill:#175fff"/><path d="M24.35,60c1.42-3.56,5.79-7.77,10-6.24a5.1,5.1,0,0,1,3.06,6.51l0,.05A15.29,15.29,0,0,0,45.3,79a15.27,15.27,0,0,1-11.85.59,15.44,15.44,0,0,1-9.9-12.14A14.5,14.5,0,0,1,24.35,60Z" style="fill:#175fff"/><path d="M41.14,65.79c-1.2-3.65-.55-9.68,3.63-11.2a5.11,5.11,0,0,1,6.53,3v0a15.28,15.28,0,0,0,18.09,9.2,15.26,15.26,0,0,1-8.7,8.07A15.45,15.45,0,0,1,45.31,72,14.58,14.58,0,0,1,41.14,65.79Z" style="fill:#175fff"/><path d="M57.71,59.4c-3.26-2-6.64-7-4.42-10.91a5.1,5.1,0,0,1,7-1.87l0,0a15.28,15.28,0,0,0,19.77-4.58,15.25,15.25,0,0,1-1.48,11.77A15.43,15.43,0,0,1,64.9,61.48,14.55,14.55,0,0,1,57.71,59.4Z" style="fill:#175fff"/><path d="M66.3,43.86c-3.8.55-9.63-1.13-10.4-5.52A5.1,5.1,0,0,1,60,32.44h.05a15.29,15.29,0,0,0,12.2-16.21,15.27,15.27,0,0,1,6.44,10,15.44,15.44,0,0,1-5.57,14.64A14.42,14.42,0,0,1,66.3,43.86Z" style="fill:#175fff"/><path d="M62.88,26.43c-2.56,2.87-8.1,5.32-11.51,2.46a5.1,5.1,0,0,1-.64-7.16l0,0A15.32,15.32,0,0,0,49.69,1.42,15.22,15.22,0,0,1,61,4.93a15.38,15.38,0,0,1,5.15,14.79A14.37,14.37,0,0,1,62.88,26.43Z" style="fill:#175fff"/></svg>